<?xml version="1.0" standalone="no"?>
<!DOCTYPE svg PUBLIC "-//W3C//DTD SVG 20010904//EN"
 "http://www.w3.org/TR/2001/REC-SVG-20010904/DTD/svg10.dtd">
<svg version="1.0" xmlns="http://www.w3.org/2000/svg"
 width="512.000000pt" height="512.000000pt" viewBox="0 0 512.000000 512.000000"
 preserveAspectRatio="xMidYMid meet">
<metadata>
Created by potrace 1.14, written by Peter Selinger 2001-2017
</metadata>
<g transform="translate(0.000000,512.000000) scale(0.100000,-0.100000)"
fill="#000000" stroke="none">
<path d="M0 2480 l0 -2400 1028 0 c646 0 1033 4 1042 10 8 5 11 10 6 10 -5 0
-2 8 5 17 8 10 9 14 2 10 -8 -5 -11 2 -11 23 1 16 6 30 12 30 6 0 5 4 -3 9 -7
5 -11 13 -7 19 3 6 2 13 -3 17 -6 3 -8 12 -5 20 4 8 11 12 18 8 6 -4 5 1 -2
10 -8 9 -12 22 -9 29 2 7 0 21 -5 32 -7 13 -7 16 1 11 8 -5 10 1 5 19 -4 17
-2 26 6 26 7 0 6 6 -4 16 -18 18 -21 28 -6 19 7 -4 9 2 4 19 -4 18 -2 26 7 26
9 0 10 3 4 8 -14 10 -15 65 -1 74 8 5 7 8 -3 8 -7 0 -11 6 -8 15 4 8 2 17 -4
20 -5 4 -7 11 -4 16 4 5 -1 9 -10 9 -9 0 -14 -4 -11 -8 7 -12 -48 -9 -56 3 -5
6 -12 4 -18 -5 -8 -12 -10 -12 -10 -1 0 11 -3 11 -15 1 -12 -10 -15 -9 -15 4
0 10 -5 14 -10 11 -6 -4 -8 -10 -5 -15 8 -13 -21 -6 -39 9 -14 12 -16 11 -9
-5 6 -16 5 -17 -9 -6 -12 9 -18 10 -23 2 -5 -8 -10 -8 -20 0 -10 8 -14 7 -18
-2 -4 -10 -6 -10 -6 1 -1 11 -4 11 -16 1 -8 -6 -20 -8 -27 -4 -20 13 -38 13
-38 1 0 -6 -6 -3 -13 8 -11 14 -16 15 -22 5 -6 -9 -4 -11 5 -5 8 5 11 4 7 -3
-9 -13 -30 -10 -51 7 -14 12 -16 11 -9 -5 6 -16 5 -17 -9 -6 -12 9 -18 10 -23
2 -5 -8 -10 -8 -20 0 -10 8 -14 7 -18 -2 -4 -10 -6 -10 -6 1 -1 11 -4 11 -16
1 -8 -6 -20 -8 -27 -4 -20 13 -38 13 -38 1 0 -6 -6 -3 -13 8 -11 14 -16 15
-22 5 -6 -9 -4 -11 5 -5 8 5 11 4 7 -3 -9 -13 -30 -10 -51 7 -14 12 -16 11 -9
-5 6 -16 5 -17 -9 -6 -12 9 -18 10 -23 2 -5 -8 -10 -8 -20 0 -10 8 -14 7 -18
-2 -4 -10 -6 -10 -6 1 -1 11 -4 11 -16 1 -8 -6 -20 -8 -27 -4 -20 13 -38 13
-38 1 0 -6 -6 -3 -13 8 -11 14 -16 15 -22 5 -6 -9 -4 -11 5 -5 8 5 11 4 7 -3
-9 -13 -30 -10 -51 7 -14 12 -16 11 -9 -5 6 -16 5 -17 -9 -6 -12 9 -18 10 -23
2 -5 -8 -10 -8 -20 0 -10 8 -14 7 -18 -2 -4 -10 -6 -10 -6 1 -1 11 -4 11 -16
1 -8 -6 -20 -8 -27 -4 -20 13 -38 13 -38 1 0 -6 -6 -3 -13 8 -11 14 -16 15
-22 5 -6 -9 -4 -11 5 -5 8 5 11 4 7 -3 -9 -13 -30 -10 -51 7 -14 12 -16 11 -9
-5 6 -16 5 -17 -9 -6 -12 9 -18 10 -23 2 -5 -8 -10 -8 -20 0 -10 8 -14 7 -18
-2 -4 -10 -6 -10 -6 1 -1 11 -4 11 -16 1 -8 -6 -20 -8 -27 -4 -20 13 -38 13
-38 1 0 -6 -6 -3 -13 8 -11 14 -16 15 -22 5 -6 -9 -4 -11 5 -5 8 5 11 4 7 -3
-8 -11 -25 -11 -44 1 -6 4 -14 1 -16 -5 -4 -10 -6 -10 -6 -1 -1 9 -8 10 -26 3
-20 -8 -25 -6 -25 7 0 15 -2 14 -16 -3 -8 -10 -13 -13 -9 -6 7 13 -7 17 -19 5
-13 -14 -38 -12 -32 3 4 11 -1 10 -21 -3 -15 -10 -24 -12 -20 -5 5 8 2 12 -9
12 -14 0 -15 2 -3 17 10 11 10 14 1 9 -8 -5 -11 -1 -9 13 2 11 6 24 10 27 4 4
2 13 -4 21 -8 9 -8 17 0 26 6 8 7 17 3 21 -11 12 -9 96 3 96 7 0 7 3 0 8 -14
9 -14 45 0 54 6 5 6 8 0 8 -5 0 -10 25 -11 55 0 30 4 55 9 55 4 0 5 6 0 13
-12 20 -12 37 0 37 8 0 8 3 2 8 -15 11 -17 30 -5 52 9 16 7 20 -7 20 -15 0
-16 2 -3 10 8 5 11 10 6 10 -5 0 -2 8 5 17 9 10 9 14 2 10 -15 -9 -13 44 2 55
6 5 5 8 -2 8 -13 0 -13 26 0 48 5 6 4 12 -1 12 -12 0 -12 32 0 47 6 7 3 15 -9
22 -11 6 -13 11 -5 11 7 0 10 5 7 10 -3 6 0 10 7 10 9 0 9 3 2 8 -14 9 -14 42
0 42 7 0 7 3 1 8 -15 11 -17 32 -5 47 7 8 7 15 2 19 -11 7 -9 66 2 84 4 7 3
12 -2 12 -12 0 -12 32 0 47 6 7 3 15 -9 22 -11 6 -13 11 -5 11 7 0 10 5 7 10
-3 6 0 10 7 10 11 0 11 2 0 9 -14 9 -13 32 3 43 7 5 6 8 0 8 -14 0 -17 38 -4
45 5 4 6 12 2 18 -11 17 -11 117 0 117 4 0 5 6 0 13 -12 20 -12 37 0 37 8 0 8
3 2 8 -15 11 -17 30 -5 52 9 16 7 20 -7 20 -15 0 -16 2 -3 10 8 5 11 10 6 10
-5 0 -2 8 5 17 8 9 9 14 3 10 -8 -4 -11 3 -10 23 0 17 5 30 11 30 6 0 5 4 -1
8 -14 8 -13 54 1 64 6 5 6 8 -2 8 -6 0 -10 8 -8 18 1 10 11 17 24 16 11 0 21
3 21 7 0 5 6 6 14 3 21 -8 216 -10 216 -2 0 4 13 3 30 -2 17 -5 30 -5 30 0 0
5 13 5 30 0 16 -5 30 -6 30 -2 0 4 45 5 100 2 55 -3 100 -2 100 2 0 4 13 3 30
-2 17 -5 30 -5 30 0 0 5 13 5 30 0 16 -5 30 -6 30 -2 0 4 45 5 100 2 55 -3
100 -2 100 2 0 4 13 3 30 -2 17 -5 30 -5 30 0 0 5 13 5 30 0 16 -5 30 -6 30
-2 0 4 45 5 100 2 55 -3 100 -2 100 2 0 4 13 3 30 -2 17 -5 30 -5 30 0 0 5 13
5 30 0 16 -5 30 -6 30 -2 0 4 20 6 44 6 40 -2 43 0 40 21 -1 13 -5 28 -8 33
-3 4 1 20 9 35 9 19 10 29 3 33 -7 5 -8 2 -3 -7 5 -8 4 -11 -1 -6 -14 13 -11
41 6 55 8 8 10 11 4 8 -16 -8 -25 19 -12 32 6 6 6 12 -1 16 -7 4 -7 15 -1 30
5 13 6 27 3 30 -12 12 -8 52 7 64 13 12 13 13 -2 8 -14 -4 -16 -1 -8 18 5 13
6 26 4 29 -10 10 -11 57 -1 57 5 0 4 7 -3 15 -9 11 -9 15 -1 15 8 0 8 4 -1 14
-8 8 -15 10 -19 4 -4 -7 -9 -6 -14 1 -5 9 -11 9 -23 -1 -12 -10 -14 -10 -8 0
4 6 3 12 -3 12 -5 0 -12 -6 -15 -12 -5 -10 -7 -10 -12 0 -5 10 -9 10 -20 1
-11 -9 -14 -8 -14 2 0 11 -2 11 -10 -1 -8 -12 -10 -12 -10 -1 0 11 -3 11 -17
0 -11 -9 -14 -10 -9 -2 5 9 2 11 -8 7 -9 -3 -13 -11 -10 -18 3 -6 -2 -2 -10 8
-9 11 -16 15 -16 9 0 -6 -7 -13 -14 -16 -9 -4 -13 -1 -10 6 3 9 -7 13 -30 13
-19 0 -33 -3 -30 -7 2 -4 -3 -9 -11 -12 -9 -4 -12 -1 -9 8 4 9 -1 12 -13 10
-10 -2 -18 -4 -18 -5 0 -1 -8 -3 -18 -5 -9 -2 -15 1 -11 6 3 5 1 9 -5 9 -5 0
-12 -6 -15 -12 -5 -10 -7 -10 -12 0 -5 10 -9 10 -20 1 -11 -9 -14 -8 -14 2 0
11 -2 11 -10 -1 -8 -12 -10 -12 -10 -1 0 11 -3 11 -17 0 -11 -9 -14 -10 -9 -2
5 9 2 11 -8 7 -9 -3 -13 -11 -10 -18 3 -6 -2 -2 -10 8 -9 11 -16 15 -16 9 0
-6 -7 -13 -14 -16 -9 -4 -13 -1 -10 6 3 9 -7 13 -30 13 -19 0 -33 -3 -30 -7 2
-4 -3 -9 -11 -12 -9 -4 -12 -1 -9 8 4 9 -1 12 -13 10 -10 -2 -18 -4 -18 -5 0
-1 -8 -3 -18 -5 -9 -2 -15 1 -11 6 3 5 1 9 -5 9 -5 0 -12 -6 -15 -12 -5 -10
-7 -10 -12 0 -5 10 -9 10 -20 1 -11 -9 -14 -8 -14 2 0 11 -2 11 -10 -1 -8 -12
-10 -12 -10 -1 0 11 -3 11 -17 0 -11 -9 -14 -10 -9 -2 5 9 2 11 -8 7 -9 -3
-13 -11 -10 -18 3 -6 -2 -2 -10 8 -9 11 -16 15 -16 9 0 -6 -7 -13 -14 -16 -9
-4 -13 -1 -10 6 3 9 -7 13 -30 13 -19 0 -33 -3 -30 -7 2 -4 -3 -9 -11 -12 -9
-4 -12 -1 -9 8 4 9 -1 12 -13 10 -10 -2 -18 -4 -18 -5 0 -1 -8 -3 -18 -5 -9
-2 -15 1 -11 6 3 5 1 9 -5 9 -5 0 -12 -6 -15 -12 -5 -10 -7 -10 -12 0 -5 10
-9 10 -20 1 -11 -9 -14 -8 -14 2 0 11 -2 11 -10 -1 -8 -12 -10 -12 -10 -1 0
11 -3 11 -17 0 -11 -9 -14 -10 -9 -2 5 9 2 11 -8 7 -9 -3 -13 -11 -10 -18 3
-6 -2 -2 -10 8 -9 11 -16 15 -16 9 0 -6 -7 -13 -14 -16 -9 -4 -13 -1 -10 7 3
9 -14 12 -68 10 -40 -1 -82 -5 -92 -9 -14 -6 -17 -5 -11 4 6 10 3 11 -14 2
-16 -9 -21 -9 -21 1 0 10 -2 10 -9 0 -7 -11 -9 -11 -14 2 -4 9 -1 16 6 16 7 0
8 3 2 8 -13 9 -17 72 -4 72 6 0 7 6 2 13 -12 20 -12 37 0 37 8 0 8 3 2 8 -15
11 -17 30 -5 52 9 16 7 20 -7 20 -15 0 -16 2 -3 10 8 5 11 10 6 10 -5 0 -2 8
5 17 9 10 9 14 2 10 -15 -9 -13 44 2 55 6 5 5 8 -2 8 -13 0 -13 26 0 48 5 6 4
12 -1 12 -12 0 -12 32 0 47 6 7 3 15 -9 22 -11 6 -13 11 -5 11 7 0 10 5 7 10
-3 6 0 10 7 10 9 0 9 3 2 8 -14 9 -14 42 0 42 7 0 7 3 1 8 -15 11 -17 32 -5
47 7 8 7 15 2 19 -11 7 -9 66 2 84 4 7 3 12 -2 12 -12 0 -12 32 0 47 6 7 3 15
-9 22 -11 6 -13 11 -5 11 7 0 10 5 7 10 -3 6 0 10 7 10 11 0 11 2 0 9 -14 9
-13 32 3 43 7 5 6 8 0 8 -14 0 -17 38 -4 45 5 4 6 12 2 18 -11 17 -11 117 0
117 4 0 5 6 0 13 -12 20 -12 37 0 37 8 0 8 3 2 8 -15 11 -17 30 -5 52 9 16 7
20 -7 20 -15 0 -16 2 -3 10 8 5 11 10 6 10 -5 0 -2 8 5 17 9 10 9 14 2 10 -15
-9 -13 44 2 55 6 5 5 8 -3 8 -15 0 -13 60 3 60 7 0 7 3 0 8 -14 9 -14 45 0 54
7 5 7 8 0 8 -18 0 -12 64 7 83 10 9 18 12 18 6 0 -8 6 -7 17 2 11 10 14 10 9
2 -4 -7 -3 -13 1 -13 5 0 15 6 22 13 12 10 13 8 7 -8 -6 -16 -5 -17 5 -8 9 9
17 9 32 2 13 -8 17 -8 13 -1 -3 6 -2 13 4 17 5 3 10 1 10 -6 0 -8 5 -7 17 2
10 8 14 9 10 2 -5 -8 0 -11 13 -10 11 1 20 6 20 12 0 5 4 4 9 -3 9 -14 32 -13
43 3 5 6 8 5 8 -4 0 -11 3 -11 17 0 9 8 14 9 10 3 -4 -7 2 -11 18 -11 14 0 22
4 19 9 -3 5 4 4 15 -4 18 -11 23 -11 31 2 8 12 10 12 10 1 0 -11 3 -11 15 -1
18 15 20 0 3 -20 -8 -9 -5 -8 7 1 11 9 26 14 34 11 10 -3 11 0 5 9 -6 11 -5
12 7 2 11 -9 19 -9 26 -2 8 8 13 7 18 -2 6 -8 4 -10 -5 -4 -9 5 -11 4 -6 -4 6
-9 11 -9 21 -1 10 8 15 8 20 0 5 -8 13 -6 25 5 14 12 20 13 26 4 5 -8 3 -10
-6 -4 -9 5 -11 4 -6 -4 6 -9 11 -9 21 -1 10 8 15 8 20 0 5 -8 14 -6 28 7 11
10 17 13 14 6 -5 -8 0 -11 13 -10 11 1 20 6 20 12 0 5 4 4 9 -3 9 -14 32 -13
43 3 5 6 8 5 8 -4 0 -11 3 -11 17 0 9 8 14 9 10 3 -4 -7 2 -11 18 -11 14 0 22
4 19 9 -3 5 4 4 15 -4 18 -11 23 -11 31 2 8 12 10 12 10 1 0 -11 3 -11 15 -1
18 15 20 0 3 -20 -8 -9 -5 -8 7 1 11 9 26 14 34 11 10 -3 11 0 5 9 -6 11 -5
12 7 2 11 -9 19 -9 26 -2 8 8 13 7 18 -2 6 -8 4 -10 -5 -4 -9 5 -11 4 -6 -4 6
-9 11 -9 21 -1 10 8 15 8 20 0 5 -8 13 -6 25 5 14 12 20 13 26 4 5 -8 3 -10
-6 -4 -9 5 -11 4 -6 -4 6 -9 11 -9 21 -1 10 8 15 8 20 0 5 -8 14 -6 28 7 11
10 17 13 14 6 -5 -8 0 -11 13 -10 11 1 20 6 20 12 0 5 4 4 9 -3 9 -14 32 -13
43 3 5 6 8 5 8 -4 0 -11 3 -11 17 0 9 8 14 9 10 3 -4 -7 2 -11 18 -11 14 0 22
4 19 9 -3 5 4 4 15 -4 18 -11 23 -11 31 2 8 12 10 12 10 1 0 -11 3 -11 15 -1
18 15 20 0 3 -20 -8 -9 -5 -8 7 1 11 9 26 14 34 11 9 -3 11 0 6 7 -5 9 -1 8
14 -1 18 -11 23 -11 31 2 6 8 10 10 10 3 0 -6 6 -10 14 -9 18 2 51 36 35 36
-8 0 -8 5 2 17 8 9 9 14 3 10 -7 -4 -11 2 -11 18 -1 16 4 22 11 18 8 -5 8 -3
0 8 -15 20 -16 61 -1 52 8 -4 7 -1 -1 9 -11 13 -11 21 -2 39 7 12 8 19 2 15
-5 -3 -13 1 -16 10 -3 8 -2 13 3 9 17 -10 19 20 2 39 -9 11 -11 16 -5 13 16
-9 25 18 12 31 -8 8 -7 16 3 28 8 10 9 15 3 11 -7 -4 -11 2 -11 18 -1 16 4 22
11 18 8 -5 8 -3 0 8 -14 18 -14 52 0 61 7 5 7 8 1 8 -6 0 -11 9 -12 20 -1 13
2 18 9 14 7 -4 8 -2 4 4 -5 9 -272 12 -1007 12 l-999 0 0 -2400z m605 350 c3
-5 1 -10 -4 -10 -6 0 -11 5 -11 10 0 6 2 10 4 10 3 0 8 -4 11 -10z"/>
<path d="M2599 4866 c7 -8 8 -17 3 -20 -11 -6 -10 -61 1 -72 4 -4 7 -12 7 -18
0 -6 -5 -4 -10 4 -7 11 -9 5 -8 -22 1 -21 6 -38 12 -38 6 0 5 -4 -2 -9 -18
-11 -18 -12 -3 -40 7 -13 8 -21 3 -17 -7 4 -10 -5 -10 -24 1 -16 6 -30 12 -30
7 0 8 -3 1 -8 -12 -8 -13 -27 -2 -38 4 -4 7 -12 7 -18 0 -6 -5 -4 -10 4 -8 11
-10 6 -8 -20 1 -19 7 -38 13 -42 7 -5 6 -8 -2 -8 -7 0 -9 -11 -6 -31 3 -21 1
-29 -6 -25 -7 4 -8 1 -5 -8 3 -9 10 -16 16 -16 5 0 7 -4 3 -9 -6 -10 41 -5 58
6 6 3 7 1 4 -4 -4 -6 0 -14 9 -17 8 -3 13 -2 10 3 -3 5 1 12 10 15 8 3 12 2 9
-4 -9 -14 8 -12 24 3 10 8 12 8 7 0 -4 -8 1 -11 14 -10 11 1 20 6 20 12 0 5 4
4 9 -3 9 -14 32 -13 43 3 5 6 8 5 8 -4 0 -11 3 -11 17 0 9 8 14 9 10 3 -4 -7
2 -11 18 -11 14 0 22 4 19 9 -3 5 4 4 15 -4 18 -11 23 -11 31 2 8 12 10 12 10
1 0 -11 3 -11 15 -1 18 15 20 0 3 -20 -8 -9 -5 -8 7 1 11 9 26 14 34 11 9 -3
11 0 6 9 -6 11 -5 12 5 2 9 -9 17 -9 26 -2 8 7 14 6 20 -2 5 -8 3 -9 -6 -4 -9
5 -11 4 -6 -4 6 -9 11 -9 21 -1 10 8 15 8 20 0 5 -8 13 -6 25 5 14 12 20 13
26 4 5 -8 3 -10 -6 -4 -9 5 -11 4 -6 -4 6 -9 11 -9 21 -1 10 8 15 8 20 0 5 -8
13 -6 25 5 14 12 20 13 26 4 5 -8 3 -10 -6 -4 -9 5 -11 4 -6 -4 6 -9 11 -9 21
-1 10 8 15 8 20 0 5 -8 13 -6 25 5 14 12 20 13 26 4 5 -8 3 -10 -6 -4 -9 5
-11 4 -6 -4 6 -9 11 -9 21 -1 10 8 15 8 20 0 5 -8 14 -6 28 7 11 10 17 13 14
6 -5 -8 0 -11 13 -10 11 1 20 6 20 12 0 5 4 4 9 -3 9 -14 32 -13 43 3 5 6 8 5
8 -4 0 -11 3 -11 17 0 9 8 14 9 10 3 -4 -7 2 -11 18 -11 14 0 22 4 19 9 -3 5
4 4 15 -4 18 -11 23 -11 31 2 8 12 10 12 10 1 0 -11 3 -11 15 -1 18 15 20 0 3
-20 -8 -9 -5 -8 7 1 11 9 26 14 34 11 10 -3 11 0 5 9 -6 11 -5 12 7 2 11 -9
19 -9 26 -2 8 8 13 7 18 -2 6 -8 4 -10 -5 -4 -9 5 -11 4 -6 -4 6 -9 11 -9 21
-1 10 8 15 8 20 0 5 -8 13 -6 25 5 14 12 20 13 26 4 5 -8 3 -10 -6 -4 -9 5
-11 4 -6 -4 6 -9 11 -9 21 -1 10 8 15 8 20 0 5 -8 11 -8 21 1 8 6 14 8 14 3 0
-5 5 -2 10 6 8 12 10 12 10 1 0 -11 3 -11 17 0 13 11 15 11 9 1 -10 -16 25
-13 36 3 5 6 8 6 8 -2 0 -14 40 -13 40 2 0 5 4 4 9 -3 11 -17 21 -17 32 0 7
11 9 11 9 -1 0 -11 3 -11 17 0 9 8 14 9 10 3 -4 -7 2 -11 18 -11 14 0 22 4 19
9 -3 5 4 4 15 -4 18 -11 23 -11 31 2 6 10 10 11 10 3 0 -15 21 -13 32 2 5 6 8
5 8 -4 0 -11 3 -11 17 0 10 8 14 9 10 2 -5 -8 0 -11 13 -10 11 1 20 6 20 12 0
6 3 6 8 -1 9 -14 42 -14 42 0 0 6 4 5 9 -2 4 -8 12 -14 16 -14 4 0 12 6 16 14
7 11 9 11 9 -1 0 -11 3 -11 17 0 9 8 14 9 10 3 -4 -7 2 -11 18 -11 16 0 22 4
18 11 -4 6 1 4 12 -4 10 -8 20 -14 22 -12 1 1 11 2 20 2 15 0 15 -1 -2 -13
-10 -8 -15 -19 -12 -24 4 -6 0 -13 -8 -17 -8 -3 -15 -15 -15 -26 0 -11 -5 -20
-11 -20 -5 0 -7 -4 -4 -10 3 -5 1 -10 -5 -10 -6 0 -9 -4 -5 -9 3 -5 -2 -17
-11 -25 -8 -9 -13 -16 -9 -16 4 0 -1 -7 -9 -16 -9 -8 -14 -20 -11 -25 4 -5 1
-9 -4 -9 -6 0 -11 -9 -11 -21 0 -13 -4 -18 -12 -13 -7 5 -9 2 -5 -9 3 -9 0
-18 -9 -21 -9 -3 -13 -10 -10 -15 3 -5 -1 -14 -9 -21 -8 -7 -13 -16 -10 -20 3
-5 -2 -16 -11 -24 -9 -9 -17 -23 -18 -32 -1 -9 -9 -20 -17 -25 -8 -5 -10 -9
-5 -9 5 0 1 -10 -10 -22 -12 -13 -13 -18 -4 -13 11 6 10 3 -2 -12 -10 -11 -18
-25 -18 -32 0 -7 -4 -9 -10 -6 -6 3 -7 -1 -4 -9 3 -9 2 -16 -4 -16 -6 0 -13
-13 -17 -30 -4 -16 -10 -30 -15 -30 -6 0 -16 -23 -19 -45 0 -3 -10 -15 -21
-27 -11 -12 -20 -30 -20 -40 0 -11 -4 -16 -10 -13 -6 3 -7 -1 -4 -9 3 -9 1
-16 -5 -16 -6 0 -10 -3 -9 -7 3 -15 -25 -62 -33 -57 -5 3 -6 -2 -3 -10 3 -9 1
-16 -5 -16 -6 0 -11 -3 -10 -7 2 -16 -14 -53 -22 -53 -5 0 -9 -9 -9 -20 0 -11
-7 -23 -15 -26 -8 -4 -12 -10 -9 -16 3 -5 -5 -21 -17 -35 -13 -15 -17 -22 -9
-18 12 7 13 6 3 -7 -7 -8 -9 -18 -5 -22 4 -4 2 -6 -3 -4 -6 2 -10 0 -10 -3 0
-4 -9 -17 -20 -30 -12 -13 -14 -19 -5 -14 8 4 5 -3 -7 -16 -11 -13 -23 -33
-25 -44 -2 -11 -10 -19 -18 -17 -11 3 -11 0 1 -14 8 -10 9 -15 3 -11 -6 3 -20
-14 -32 -43 -12 -28 -26 -50 -31 -50 -5 0 -12 -16 -15 -35 -4 -19 -11 -35 -16
-35 -6 0 -10 -7 -10 -15 0 -8 -5 -15 -11 -15 -5 0 -8 -4 -5 -9 3 -5 -3 -20
-14 -34 -11 -14 -20 -32 -20 -41 0 -9 -5 -16 -12 -16 -6 0 -8 -3 -5 -6 4 -4
-2 -19 -12 -33 -10 -14 -22 -36 -25 -48 -4 -13 -12 -23 -17 -23 -5 0 -8 -3 -7
-7 4 -12 -45 -106 -62 -121 -9 -8 -10 -11 -2 -7 8 4 2 -11 -12 -33 -14 -22
-22 -43 -19 -46 4 -3 1 -6 -6 -6 -7 0 -9 -4 -6 -10 3 -5 2 -10 -4 -10 -6 0
-13 -11 -17 -25 -3 -14 -10 -25 -15 -25 -5 0 -9 -9 -9 -20 0 -10 -8 -24 -17
-29 -10 -6 -15 -11 -10 -11 4 0 1 -10 -8 -23 -8 -13 -12 -27 -8 -30 3 -4 1 -7
-6 -7 -7 0 -9 -5 -6 -10 3 -6 1 -10 -4 -10 -6 0 -11 -7 -11 -15 0 -8 -5 -15
-11 -15 -5 0 -7 -5 -4 -10 3 -6 -1 -13 -9 -16 -9 -3 -16 -17 -16 -30 0 -13 -5
-24 -11 -24 -6 0 -8 -7 -5 -16 3 -8 2 -13 -3 -10 -9 6 -21 -14 -27 -42 -1 -8
-11 -23 -21 -35 -13 -14 -14 -18 -3 -13 9 5 8 2 -2 -7 -10 -8 -15 -17 -11 -20
3 -4 -1 -9 -10 -13 -9 -3 -13 -12 -10 -20 3 -8 0 -14 -7 -14 -6 0 -9 -4 -5 -9
3 -6 -3 -14 -12 -20 -10 -6 -15 -11 -10 -11 4 0 1 -13 -8 -30 -8 -16 -16 -33
-16 -37 0 -5 -7 -12 -15 -16 -8 -5 -12 -12 -9 -18 4 -5 1 -9 -4 -9 -6 0 -10
-3 -9 -8 3 -12 -24 -62 -34 -62 -4 0 -8 -5 -8 -11 0 -5 6 -7 13 -4 6 4 4 0 -7
-9 -10 -8 -15 -19 -11 -25 3 -6 -1 -11 -9 -11 -9 0 -16 -9 -16 -20 0 -11 -4
-20 -10 -20 -5 0 -10 -9 -10 -20 0 -10 -6 -23 -14 -27 -15 -8 -16 -11 -16 -39
0 -9 -5 -12 -12 -8 -7 5 -9 2 -6 -7 7 -17 -26 -61 -38 -51 -5 4 -3 0 4 -9 10
-14 10 -18 -3 -23 -8 -3 -15 -15 -15 -26 0 -12 -4 -18 -10 -15 -6 3 -7 -1 -4
-9 3 -9 2 -16 -4 -16 -5 0 -13 -7 -16 -16 -4 -10 -2 -13 7 -9 6 4 5 1 -4 -7
-9 -7 -19 -23 -23 -36 -4 -12 -11 -20 -16 -17 -5 3 -7 -3 -5 -14 2 -11 -3 -22
-11 -25 -9 -3 -12 -10 -9 -16 3 -5 2 -10 -4 -10 -6 0 -8 -6 -5 -14 3 -7 -2
-16 -11 -20 -9 -3 -13 -10 -10 -16 3 -5 3 -10 -2 -10 -4 0 -16 -20 -26 -45
-11 -25 -23 -42 -28 -39 -5 3 -9 2 -8 -3 4 -23 -2 -43 -11 -38 -6 4 -10 3 -9
-2 4 -25 -2 -43 -13 -37 -8 5 -9 2 -5 -9 3 -9 2 -19 -4 -22 -5 -4 -6 -12 -3
-18 4 -7 4 -9 -1 -5 -10 9 -38 -28 -31 -41 3 -4 -3 -16 -14 -26 -11 -10 -17
-22 -14 -26 3 -5 0 -9 -6 -9 -6 0 -8 -5 -5 -10 3 -6 1 -10 -5 -10 -6 0 -8 -5
-5 -10 3 -6 0 -12 -7 -15 -8 -3 -15 -15 -15 -28 -1 -12 -10 -27 -19 -34 -10
-7 -14 -13 -10 -13 5 0 3 -6 -3 -13 -6 -8 -8 -17 -4 -20 3 -4 1 -7 -6 -7 -8 0
-11 -7 -7 -15 3 -9 0 -15 -10 -15 -8 0 -13 -4 -9 -9 3 -5 -2 -16 -11 -25 -8
-9 -12 -21 -8 -27 4 -8 3 -9 -4 -5 -8 5 -12 0 -12 -13 0 -10 -3 -21 -7 -23 -5
-2 -24 -34 -43 -73 -19 -38 -38 -72 -42 -73 -5 -2 -8 -8 -8 -13 0 -6 6 -7 13
-4 6 4 5 1 -4 -7 -13 -11 -15 -39 -14 -188 2 -96 3 -178 4 -182 0 -5 606 -8
1346 -8 l1346 0 -1 263 -1 263 -25 0 c-13 0 -24 -4 -24 -10 0 -5 -6 -2 -13 9
-11 14 -16 15 -22 5 -6 -9 -4 -11 5 -5 8 5 11 4 7 -3 -9 -13 -30 -10 -51 7
-14 12 -16 11 -9 -5 6 -16 5 -17 -9 -6 -12 9 -18 10 -23 2 -5 -8 -10 -8 -20 0
-10 8 -14 7 -18 -2 -4 -10 -6 -10 -6 1 -1 11 -4 11 -16 1 -8 -6 -20 -8 -27 -4
-20 13 -38 13 -38 1 0 -6 -6 -3 -13 8 -11 14 -16 15 -22 5 -6 -9 -4 -11 5 -5
8 5 11 4 7 -3 -9 -13 -30 -10 -51 7 -14 12 -16 11 -9 -5 6 -16 5 -17 -9 -6
-12 9 -18 10 -23 2 -5 -8 -10 -8 -20 0 -10 8 -14 7 -18 -2 -4 -10 -6 -10 -6 1
-1 11 -4 11 -16 1 -8 -6 -20 -8 -27 -4 -20 13 -38 13 -38 1 0 -6 -6 -3 -13 8
-11 14 -16 15 -22 5 -6 -9 -4 -11 5 -5 8 5 11 4 7 -3 -8 -11 -25 -11 -44 1 -6
4 -14 1 -16 -5 -4 -10 -6 -10 -6 -1 -1 9 -8 10 -26 3 -20 -8 -25 -6 -25 7 0
15 -2 14 -16 -3 -8 -10 -13 -13 -9 -6 7 13 -7 17 -19 5 -12 -13 -38 -12 -33 1
3 7 -1 13 -9 13 -7 0 -11 -4 -8 -8 2 -4 0 -10 -6 -14 -5 -3 -10 -2 -10 4 0 7
-8 7 -25 1 -20 -8 -25 -6 -25 7 0 15 -2 14 -16 -3 -8 -10 -13 -13 -9 -6 7 13
-7 17 -19 5 -12 -13 -38 -12 -33 1 3 7 -1 13 -9 13 -7 0 -11 -4 -8 -8 2 -4 0
-10 -6 -14 -5 -3 -10 -2 -10 4 0 7 -8 7 -25 1 -20 -8 -25 -6 -25 7 0 15 -2 14
-16 -3 -8 -10 -13 -13 -9 -6 7 13 -7 17 -19 5 -12 -13 -38 -12 -33 1 3 7 -1
13 -9 13 -7 0 -11 -4 -8 -8 2 -4 0 -10 -6 -14 -5 -3 -10 -2 -10 4 0 7 -8 7
-25 1 -20 -8 -25 -6 -25 7 0 15 -2 14 -16 -3 -8 -10 -13 -13 -9 -6 7 13 -7 17
-19 5 -12 -13 -38 -12 -33 1 3 7 -1 13 -9 13 -7 0 -11 -4 -8 -8 2 -4 0 -10 -6
-14 -5 -3 -10 -1 -10 6 0 8 -5 7 -17 -2 -20 -17 -17 -18 -42 5 -22 20 -22 20
-15 0 7 -16 6 -17 -8 -6 -12 9 -18 10 -23 2 -5 -8 -10 -8 -20 0 -10 8 -14 7
-18 -2 -4 -10 -6 -10 -6 1 -1 11 -4 11 -16 1 -8 -6 -20 -8 -27 -4 -20 13 -38
13 -38 1 0 -6 -6 -3 -13 8 -11 14 -16 15 -22 5 -6 -9 -4 -11 5 -5 8 5 11 4 7
-3 -9 -13 -30 -10 -51 7 -14 12 -16 11 -9 -5 6 -16 5 -17 -9 -6 -12 9 -18 10
-23 2 -5 -8 -10 -8 -20 0 -10 8 -14 7 -18 -2 -4 -10 -6 -10 -6 1 -1 11 -4 11
-16 1 -8 -6 -20 -8 -27 -4 -20 13 -38 13 -38 1 0 -6 -6 -3 -13 8 -11 14 -16
15 -22 5 -6 -9 -4 -11 5 -5 8 5 11 4 7 -3 -9 -13 -30 -10 -51 7 -14 12 -16 11
-9 -5 6 -16 5 -17 -9 -6 -12 9 -18 10 -23 2 -5 -8 -10 -8 -20 0 -10 8 -14 7
-18 -2 -4 -10 -6 -10 -6 1 -1 10 -4 11 -15 2 -11 -9 -16 -9 -22 0 -5 8 -3 9 6
4 9 -6 11 -4 5 5 -6 10 -11 9 -22 -5 -9 -14 -13 -15 -13 -4 0 12 -2 12 -10 -1
-9 -13 -10 -13 -10 0 0 13 -1 13 -10 0 -8 -12 -10 -12 -10 -1 0 10 -3 11 -14
2 -11 -9 -16 -9 -21 0 -6 8 -9 8 -15 -1 -5 -7 -9 -2 -12 14 -3 14 -1 26 4 26
5 0 6 4 3 10 -3 5 -1 10 5 10 6 0 8 4 5 10 -3 5 -1 10 4 10 6 0 11 5 11 12 0
6 7 20 17 30 11 12 12 18 3 18 -7 0 -3 8 8 18 12 9 22 26 24 37 2 11 9 26 16
33 6 7 12 19 12 27 0 7 8 16 17 19 15 6 15 8 3 16 -13 8 -12 10 3 10 10 0 16
4 12 9 -3 5 1 16 9 24 8 8 12 18 8 22 -4 3 1 11 11 16 9 6 17 15 17 21 0 6 8
20 18 31 12 15 13 18 2 12 -12 -7 -13 -6 -3 7 7 8 9 18 5 22 -4 4 0 6 8 4 9
-2 14 4 14 15 -1 9 2 17 8 17 5 0 7 4 3 9 -3 5 -1 12 5 16 5 3 17 21 26 40 9
19 21 35 26 35 5 0 6 5 3 10 -3 6 3 24 15 40 12 16 18 35 14 41 -4 8 -3 9 4 5
11 -6 16 6 13 26 0 5 4 8 9 8 6 0 10 7 10 15 0 8 4 15 8 15 4 0 8 10 9 22 1
12 9 26 18 30 8 5 13 13 10 19 -4 5 1 12 9 15 9 3 13 10 10 16 -3 5 1 17 9 26
8 9 20 32 28 50 8 17 17 32 21 32 5 0 8 9 8 20 0 11 5 20 12 20 6 0 9 3 5 6
-3 4 1 13 9 21 8 8 12 19 9 24 -4 5 -1 9 4 9 6 0 10 3 10 8 -3 19 2 33 11 27
6 -3 10 -1 10 4 0 10 18 49 65 141 10 19 23 38 28 41 5 3 8 9 7 13 -2 11 62
136 70 136 4 0 11 7 14 16 6 15 4 15 -11 3 -9 -8 -6 2 9 21 14 19 31 50 39 68
8 17 18 32 22 32 5 0 5 5 2 10 -3 6 -1 10 4 10 6 0 10 3 10 8 -4 21 2 32 13
26 7 -5 9 -2 5 9 -3 9 -1 17 4 19 6 2 11 11 13 20 1 9 9 25 18 35 8 10 18 31
22 46 4 15 11 25 16 22 6 -3 7 1 4 9 -3 9 -1 16 5 16 6 0 11 9 11 20 0 11 5
20 11 20 5 0 7 5 4 10 -3 6 -1 10 4 10 6 0 11 7 11 15 0 8 6 15 13 15 8 0 7 4
-3 10 -10 6 -11 10 -2 10 6 0 12 6 12 14 0 8 7 17 16 20 8 3 12 10 9 16 -3 5
-1 10 4 10 6 0 10 3 10 8 -3 20 2 33 11 27 6 -4 9 -3 8 2 -4 12 30 90 42 98 6
3 8 11 5 16 -4 5 -1 9 4 9 6 0 11 7 11 15 0 8 5 15 10 15 6 0 9 3 8 8 -4 16
26 61 36 55 6 -4 5 1 -3 10 -7 9 -9 17 -4 17 5 0 18 18 29 40 10 22 22 40 26
40 4 0 5 6 2 14 -3 7 2 16 11 20 9 3 14 10 11 15 -4 5 1 17 10 25 8 9 12 16 8
16 -4 0 1 7 12 16 10 8 12 12 5 8 -9 -4 -6 6 8 24 12 18 19 32 15 32 -4 0 1 7
12 16 10 8 12 12 4 8 -11 -6 -10 -2 3 13 9 11 14 23 10 26 -3 4 -1 7 5 7 7 0
12 7 12 15 0 9 7 18 15 21 8 4 15 10 15 16 0 5 -6 6 -12 3 -7 -4 -5 0 5 8 10
8 19 24 20 35 0 11 4 19 8 17 6 -5 29 39 29 56 0 6 6 17 13 24 36 41 38 45 25
45 -9 0 -10 3 -2 8 14 9 39 54 36 65 -1 4 2 7 8 7 5 0 10 7 10 15 0 9 10 29
21 44 13 17 18 34 14 42 -5 8 -4 10 3 5 7 -4 14 3 18 19 3 14 10 25 16 25 5 0
6 5 3 10 -3 6 -1 10 6 10 7 0 10 3 6 6 -3 4 1 13 9 21 8 8 12 19 9 24 -4 5 -1
9 6 9 7 0 10 3 6 6 -3 3 3 14 14 25 11 11 17 24 14 29 -4 6 1 13 9 16 9 3 13
10 10 15 -3 5 4 21 15 35 11 15 18 30 15 35 -3 5 2 12 10 15 9 3 14 10 11 14
-3 5 1 14 8 22 8 7 12 19 9 27 -3 8 0 11 7 7 6 -4 11 0 11 9 0 9 10 31 22 48
13 18 16 28 7 23 -7 -4 -6 -1 3 7 10 8 15 17 11 20 -3 4 -2 7 4 7 9 0 21 27
21 47 0 3 7 10 16 15 9 5 14 13 11 19 -4 5 -2 9 4 9 6 0 8 6 5 13 -3 8 2 20
10 27 9 7 13 16 10 21 -3 5 0 9 5 9 6 0 11 7 11 16 0 9 5 12 12 8 8 -5 9 -2 5
9 -3 10 -2 17 4 17 6 0 7 5 4 10 -3 6 -3 10 2 10 4 0 14 15 22 33 8 17 23 45
35 61 13 19 15 27 5 22 -7 -4 -6 -1 5 8 10 8 15 20 10 27 -4 7 -3 10 4 5 6 -3
13 -2 16 3 4 5 2 12 -3 16 -6 3 -8 12 -5 20 4 8 10 12 15 9 5 -3 6 2 3 10 -3
9 -11 13 -18 9 -8 -5 -8 -3 1 8 6 8 10 29 9 47 -1 18 1 35 5 38 5 3 6 11 3 19
-4 8 -10 12 -15 9 -5 -3 -6 2 -3 10 3 9 10 13 15 10 5 -3 6 2 3 10 -3 9 -11
13 -18 9 -8 -5 -8 -3 0 8 6 8 11 28 10 44 -1 17 2 38 7 49 6 13 6 16 -2 12 -7
-5 -11 1 -11 14 0 13 4 19 11 14 8 -4 8 0 0 15 l-12 21 -1251 0 c-1075 0
-1249 -2 -1239 -14z"/>
</g>
</svg>
